<?xml version="1.0" encoding="UTF-8"?>
<svg width="324px" height="108px" viewBox="0 0 324 108" version="1.1" xmlns="http://www.w3.org/2000/svg" xmlns:xlink="http://www.w3.org/1999/xlink">
    <!-- Generator: Sketch 42 (36781) - http://www.bohemiancoding.com/sketch -->
    <title>Logo large</title>
    <desc>Created with Sketch.</desc>
    <defs></defs>
    <g id="Page-1" stroke="none" stroke-width="1" fill="none" fill-rule="evenodd">
        <g id="Logo-large">
            <g id="Logo">
                <rect id="Rectangle" fill="#E7CF04" x="0" y="0" width="108" height="108"></rect>
                <g id="icon" transform="translate(23.657143, 16.042995)" fill="#000000">
                    <path d="M56.4964378,33.678516 C54.6314069,30.0858338 57.2853292,27.9356363 57.4643388,26.0789315 C58.2886159,17.5135274 55.3953202,12.2702095 51.4633522,8.12176469 C44.9669667,1.25070783 36.6138764,-0.0419084459 31.1457557,0.00388472312 C17.1476165,0.1058786 11.4817526,4.547816 7.19592826,9.32695764 C-1.71916915,19.2786459 0.166676811,28.0147336 0.166676811,28.0147336 C0.378990595,33.1956063 7.52896949,42.6289991 7.52896949,42.6289991 C13.2281375,50.8238948 10.4285097,57.1454337 10.4285097,57.1454337 C21.9371657,59.7327477 31.37264,76.5284332 31.37264,76.5284332 C31.7889415,74.0410315 37.3195075,63.5398253 37.3195075,63.5398253 C39.629981,60.6340405 43.5140743,61.6560608 45.6059896,61.9120863 C51.6153022,62.6510215 53.1077432,60.8838215 53.1077432,60.8838215 C54.4211746,60.0803595 53.7988038,56.7374582 53.7988038,56.7374582 C53.3179755,55.0077253 54.1027039,54.1626332 54.5918582,53.4861432 C55.9094526,51.6460904 55.1476208,50.7926722 55.1476208,50.7926722 C54.7334007,50.2702138 55.0123228,49.9954548 55.0123228,49.9954548 C56.4610521,49.512545 56.567209,48.7194906 56.567209,48.7194906 L56.5297419,46.0593237 C56.2903685,44.23176 57.116727,44.1193586 57.116727,44.1193586 C60.4367318,44.0589949 60.363879,41.9087974 60.363879,41.9087974 C60.499177,40.7265011 56.4964378,33.678516 56.4964378,33.678516 Z" id="Shape"></path>
                </g>
                <g id="bar-code" transform="translate(9.257143, 6.171429)" fill="#E7CF04">
                    <rect id="Rectangle-path" x="0" y="0.253046321" width="3.27898089" height="97.4343726"></rect>
                    <rect id="Rectangle-path" x="16.4653321" y="0.253046321" width="2.05714286" height="97.4343726"></rect>
                    <rect id="Rectangle-path" x="20.6746133" y="0.253046321" width="4.54012739" height="97.4343726"></rect>
                    <rect id="Rectangle-path" x="28.221838" y="0.253046321" width="2.52229299" height="97.4343726"></rect>
                    <rect id="Rectangle-path" x="33.877343" y="0.253046321" width="4.28789809" height="97.4343726"></rect>
                    <rect id="Rectangle-path" x="40.5417652" y="0.253046321" width="4.03566879" height="97.4343726"></rect>
                    <rect id="Rectangle-path" x="46.9343039" y="1.28161775" width="2.27006369" height="97.4343726"></rect>
                    <rect id="Rectangle-path" x="51.5808917" y="0.253046321" width="3.27898089" height="97.4343726"></rect>
                    <rect id="Rectangle-path" x="56.9170155" y="0" width="3.27898089" height="97.4343726"></rect>
                    <rect id="Rectangle-path" x="62.3088262" y="0.253046321" width="2.52229299" height="97.4343726"></rect>
                    <rect id="Rectangle-path" x="66.1594177" y="0.253046321" width="2.57142857" height="97.4343726"></rect>
                    <rect id="Rectangle-path-Copy" x="70.2737034" y="0.253046321" width="0.925714261" height="97.4343726"></rect>
                </g>
                <g id="bulb-on" transform="translate(54.874100, 46.372978) rotate(27.000000) translate(-54.874100, -46.372978) translate(36.874100, 25.872978)" fill="#E7CF04">
                    <path d="M17.5469478,10.2241365 C12.4255575,10.2241365 8.25916084,14.3709526 8.25916084,19.4683678 C8.25916084,21.7751061 9.38277719,24.0203436 10.4693042,26.1918257 C11.5007707,28.2531695 12.4750355,30.2000366 12.4750355,32.0568597 C12.4750355,32.5273259 12.8583176,32.9088138 13.3309967,32.9088138 L13.500843,32.9088138 L21.5929761,32.9088138 L21.7628224,32.9088138 C22.2355779,32.9088138 22.6187836,32.5272498 22.6187836,32.0568597 C22.6187836,30.1195831 23.6044428,28.1650285 24.647992,26.095997 C25.7231246,23.964323 26.8346582,21.7602637 26.8346582,19.4684439 C26.8347347,14.3709526 22.668338,10.2241365 17.5469478,10.2241365 Z" id="Shape"></path>
                    <path d="M28.9543087,15.8414751 C29.2539221,15.8414751 29.5580157,15.7656682 29.8363482,15.6056935 L34.1952101,13.1009084 C35.0406613,12.6150384 35.3301942,11.5394357 34.8420391,10.6983139 C34.3542572,9.8568206 33.2735955,9.56882885 32.428331,10.054513 L28.0694691,12.5592981 C27.2240179,13.0447964 26.9344849,14.1203992 27.4222668,14.9617067 C27.7496947,15.5261706 28.343508,15.8414751 28.9543087,15.8414751 Z" id="Shape"></path>
                    <path d="M7.02298124,12.558817 L2.65592708,10.0493243 C1.80926095,9.56291343 0.72675519,9.85163261 0.237495503,10.6943352 C-0.251390131,11.5370378 0.0386869992,12.6146621 0.885540157,13.1014452 L5.25259431,15.6109379 C5.53144989,15.7710272 5.83574099,15.8471627 6.13610454,15.8471627 C6.7480532,15.8471627 7.34316953,15.5312656 7.67102589,14.9661131 C8.15991153,14.1230383 7.8698344,13.0452278 7.02298124,12.558817 Z" id="Shape"></path>
                    <path d="M17.5468972,8.10875109 C18.4751655,8.10875109 19.2273308,7.36010692 19.2273308,6.43636093 L19.2273308,1.67256685 C19.2273308,0.748644172 18.4749879,-2.32702746e-13 17.5468972,-2.32702746e-13 C16.6188065,-2.32702746e-13 15.8666412,0.748644172 15.8666412,1.67256685 L15.8666412,6.43636093 C15.8666412,7.36028361 16.6188065,8.10875109 17.5468972,8.10875109 Z" id="Shape"></path>
                    <path d="M21.7797994,35.0943771 C21.7797994,34.7144115 21.5514513,34.3881069 21.2239943,34.242423 L13.8698247,34.242423 C13.5425207,34.3881069 13.3140197,34.7144115 13.3140197,35.0943771 C13.3140197,35.4743428 13.5425207,35.8006473 13.8698247,35.9463313 C13.5425207,36.0920152 13.3140197,36.4181676 13.3140197,36.7981332 C13.3140197,37.178251 13.5425207,37.5044034 13.8698247,37.6500873 C13.5425207,37.7959235 13.3140197,38.1222281 13.3140197,38.5021937 C13.3140197,39.0177199 13.7340853,39.4356669 14.2521128,39.4356669 L14.4548424,39.4356669 C14.7478101,40.0957353 15.4107537,40.5564588 16.1822123,40.5564588 L18.9117596,40.5564588 C19.6832183,40.5564588 20.3461619,40.0957353 20.639206,39.4356669 L20.8417828,39.4356669 C21.3598102,39.4356669 21.7799523,39.0179483 21.7799523,38.5021937 C21.7799523,38.1222281 21.5514513,37.7959235 21.2241473,37.6500873 C21.5513748,37.5044034 21.7799523,37.178251 21.7799523,36.7981332 C21.7799523,36.4181676 21.5514513,36.0920152 21.2241473,35.9463313 C21.5513748,35.8006473 21.7797994,35.4743428 21.7797994,35.0943771 Z" id="Shape"></path>
                </g>
            </g>
            <text id="NAUTILUS-TECHNOLOGY" font-family="Helvetica-Bold, Helvetica" font-size="17" font-weight="bold" fill="#FFFFFF">
                <tspan x="117.080434" y="60">NAUTILUS</tspan>
                <tspan x="203.018422" y="60" font-family="Helvetica" font-weight="normal"> </tspan>
                <tspan x="207.741566" y="60" font-family="Helvetica-Light, Helvetica" font-weight="300">TECHNOLOGY</tspan>
            </text>
        </g>
    </g>
</svg>